<svg width="56" height="56" viewBox="0 0 56 56" fill="none" xmlns="http://www.w3.org/2000/svg">
<g clip-path="url(#clip0_1_246)">
<path fill-rule="evenodd" clip-rule="evenodd" d="M30 0H26V17.7109L19.3654 1.28963L15.6566 2.78806L22.4631 19.6347L9.61523 6.78678L6.78681 9.61523L19.101 21.9293L3.14275 14.9571L1.54129 18.6225L18.4269 26H0V30H18.4269L1.54129 37.3775L3.14275 41.043L19.1009 34.0707L6.78681 46.3848L9.61523 49.2131L22.4631 36.3653L15.6566 53.212L19.3654 54.7103L26 38.2892V56H30V38.2892L36.6346 54.7103L40.3432 53.212L33.537 36.3653L46.3848 49.2131L49.2131 46.3848L36.899 34.0707L52.8573 41.043L54.4586 37.3775L37.5732 30H56V26H37.5729L54.4586 18.6225L52.8573 14.9571L36.899 21.9293L49.2131 9.6152L46.3848 6.78678L33.537 19.6347L40.3432 2.78806L36.6346 1.28963L30 17.7109V0Z" fill="#FEE3C6"/>
</g>
<defs>
<clipPath id="clip0_1_246">
<rect width="56" height="56" fill="white"/>
</clipPath>
</defs>
</svg>
