<svg width="72" height="72" viewBox="0 0 72 72" fill="none" xmlns="http://www.w3.org/2000/svg">
<g clip-path="url(#clip0_1_159)">
<path fill-rule="evenodd" clip-rule="evenodd" d="M18.2571 0H0.257144V18C0.257144 27.1663 7.10878 34.7324 15.97 35.8561C6.98454 36.8647 1.51929e-06 44.4881 7.86805e-07 53.743L0 71.743H18C27.1663 71.743 34.7324 64.8911 35.8561 56.03C36.8647 65.0156 44.4881 72 53.743 72H71.743V54C71.743 44.8337 64.8911 37.2676 56.03 36.144C65.0156 35.1354 72 27.5119 72 18.2571V0.257143L54 0.257142C44.8337 0.257142 37.2676 7.10878 36.144 15.97C35.1354 6.98454 27.5119 0 18.2571 0Z" fill="#D5B8E7"/>
</g>
<defs>
<clipPath id="clip0_1_159">
<rect width="72" height="72" fill="white"/>
</clipPath>
</defs>
</svg>
