<svg width="101" height="101" viewBox="0 0 101 101" fill="none" xmlns="http://www.w3.org/2000/svg">
<g clip-path="url(#clip0_1_160)">
<path fill-rule="evenodd" clip-rule="evenodd" d="M48.7217 47.915C36.5068 33.927 15.3916 31.4494 0.206656 42.6937C11.3987 57.8082 32.1766 61.6333 47.9151 51.9882C33.927 64.203 31.4495 85.3183 42.6938 100.503C57.8084 89.3113 61.6335 68.5334 51.9883 52.795C64.2031 66.783 85.3184 69.2604 100.503 58.0162C89.3114 42.9017 68.5335 39.0765 52.795 48.7215C66.783 36.5067 69.2605 15.3916 58.0163 0.206599C42.9018 11.3986 39.0766 32.1765 48.7217 47.915ZM50.3547 50.3561C50.3552 50.3557 50.3559 50.3556 50.3562 50.3554L50.3553 50.3536C50.3548 50.354 50.3542 50.3544 50.3537 50.3548C50.3541 50.3552 50.3545 50.3558 50.3547 50.3561Z" fill="#D5B8E7"/>
</g>
<defs>
<clipPath id="clip0_1_160">
<rect width="72" height="72" fill="white" transform="translate(0 42.8467) rotate(-36.5193)"/>
</clipPath>
</defs>
</svg>
