<svg width="56" height="56" viewBox="0 0 56 56" fill="none" xmlns="http://www.w3.org/2000/svg">
<g clip-path="url(#clip0_1_191)">
<path fill-rule="evenodd" clip-rule="evenodd" d="M28.4491 0.240711C28.2315 -0.121904 27.706 -0.121904 27.4885 0.240711L22.2072 9.0463C22.0634 9.28601 21.7649 9.38297 21.5077 9.27358L12.0591 5.25404C11.6701 5.0885 11.2449 5.3974 11.2821 5.81857L12.1851 16.0468C12.2097 16.3252 12.0253 16.5791 11.7528 16.6418L1.7462 18.9436C1.33413 19.0384 1.17174 19.5382 1.4494 19.8571L8.19198 27.6011C8.37552 27.8119 8.37552 28.1257 8.19198 28.3366L1.4494 36.0805C1.17174 36.3994 1.33413 36.8992 1.7462 36.9939L11.7528 39.2958C12.0253 39.3585 12.2097 39.6124 12.1851 39.8908L11.2821 50.1189C11.2449 50.5403 11.6701 50.8491 12.0591 50.6836L21.5077 46.664C21.7649 46.5545 22.0634 46.6516 22.2072 46.8913L27.4885 55.6968C27.706 56.0596 28.2315 56.0594 28.4491 55.6968L33.7305 46.8913C33.8741 46.6516 34.1726 46.5545 34.4299 46.664L43.8785 50.6836C44.2674 50.8491 44.6927 50.5403 44.6555 50.1189L43.7525 39.8908C43.7279 39.6124 43.9124 39.3585 44.1848 39.2958L54.1915 36.9939C54.6033 36.8992 54.7657 36.3994 54.4883 36.0805L47.7456 28.3366C47.5622 28.1257 47.5622 27.8119 47.7456 27.6011L54.4883 19.8571C54.7657 19.5382 54.6033 19.0384 54.1915 18.9436L44.1848 16.6418C43.9124 16.5791 43.7279 16.3252 43.7525 16.0468L44.6555 5.81857C44.6927 5.3974 44.2674 5.0885 43.8785 5.25404L34.4299 9.27358C34.1726 9.38297 33.8741 9.28601 33.7305 9.0463L28.4491 0.240711ZM28 42C35.7319 42 42 35.7319 42 28C42 20.268 35.7319 14 28 14C20.268 14 14 20.268 14 28C14 35.7319 20.268 42 28 42Z" fill="#8CA3F2"/>
</g>
<defs>
<clipPath id="clip0_1_191">
<rect width="56" height="56" fill="white"/>
</clipPath>
</defs>
</svg>
